<svg width="60" height="85" viewBox="0 0 60 85" fill="none" xmlns="http://www.w3.org/2000/svg">
<path d="M28 0V25.8696H14C6.29 25.8696 0 20.0582 0 12.9348C0 5.81141 6.29 0 14 0H28ZM28 29.5652V55.4348H14C6.29 55.4348 0 49.6234 0 42.5C0 35.3766 6.29 29.5652 14 29.5652H28ZM28 59.1304V72.0652C28 79.1886 21.71 85 14 85C6.29 85 0 79.1886 0 72.0652C0 64.9418 6.29 59.1304 14 59.1304H28ZM60 12.9348C60 20.0582 53.71 25.8696 46 25.8696H32V0H46C53.71 0 60 5.81141 60 12.9348ZM46 29.5652C38.268 29.5652 32 35.3563 32 42.5C32 49.6437 38.268 55.4348 46 55.4348C53.732 55.4348 60 49.6437 60 42.5C60 35.3563 53.732 29.5652 46 29.5652Z" fill="black"/>
</svg>
