<svg width="85" height="85" viewBox="0 0 85 85" fill="none" xmlns="http://www.w3.org/2000/svg">
<path d="M79.548 37.5526L47.4473 5.45185C46.0859 4.08388 44.293 3.3999 42.5 3.3999C40.707 3.3999 38.9141 4.08388 37.5527 5.45185L31.2043 11.8003L39.0601 19.6561C41.6699 18.1222 45.0699 18.4542 47.3078 20.6921C49.5457 22.93 49.8711 26.33 48.3371 28.9331L56.0601 36.6562C58.6699 35.1222 62.0699 35.4542 64.3078 37.6921C66.964 40.3484 66.964 44.6515 64.3078 47.3077C61.6515 49.964 57.3484 49.964 54.6922 47.3077C52.4543 45.0698 52.1222 41.6698 53.6562 39.0601L45.9332 31.337C45.382 31.6624 44.8043 31.9015 44.2 32.0542V52.939C47.1285 53.696 49.3 56.3323 49.3 59.4999C49.3 63.2585 46.2586 66.2999 42.5 66.2999C38.7414 66.2999 35.7 63.2585 35.7 59.4999C35.7 56.3324 37.8715 53.696 40.8 52.939V32.0542C39.6644 31.7621 38.582 31.1976 37.6922 30.3078C35.4543 28.0699 35.1289 24.6699 36.6629 22.0667L28.8004 14.2042L5.45195 37.5527C2.71601 40.282 2.71601 44.7179 5.45195 47.4472L37.5527 79.548C38.9141 80.916 40.707 81.5999 42.5 81.5999C44.293 81.5999 46.0859 80.916 47.4473 79.548L79.5481 47.4472C82.284 44.7179 82.284 40.2819 79.548 37.5526Z" fill="black"/>
</svg>
