<svg width="85" height="85" viewBox="0 0 85 85" fill="none" xmlns="http://www.w3.org/2000/svg">
<path d="M76.9649 3.95107C76.6461 3.59912 76.1879 3.3999 75.7098 3.3999H9.29025C8.81212 3.3999 8.35392 3.59912 8.03517 3.95107C7.70978 4.30303 7.5504 4.77451 7.59689 5.25264L13.5801 72.2765C13.6399 72.9804 14.1313 73.5647 14.8086 73.764L42.0285 81.5335C42.1746 81.58 42.334 81.5999 42.4934 81.5999C42.6528 81.5999 42.8055 81.58 42.9582 81.5335L70.1981 73.764C70.8754 73.5647 71.3602 72.9804 71.4266 72.2765L77.4031 5.25264C77.4496 4.77451 77.2903 4.30303 76.9649 3.95107ZM62.641 27.0604H30.6598L31.4235 35.7132H61.8707L59.5863 61.2862L42.4867 66.4526L42.3207 66.3995L25.4203 61.2796L24.4973 50.8604H32.7781L33.1367 54.9046L42.5863 56.8835L51.8633 54.9046L52.8527 43.9608H23.8797L21.6285 18.7929H63.3781L62.641 27.0604Z" fill="black"/>
</svg>
