<svg width="85" height="85" viewBox="0 0 85 85" fill="none" xmlns="http://www.w3.org/2000/svg">
<path d="M79.6085 0H5.39946C2.41908 0 0 2.41908 0 5.39946V79.6005C0 82.5809 2.41908 85 5.39946 85H79.6005C82.5809 85 85 82.5809 85 79.6085V5.39946C85 2.41908 82.5809 0 79.6085 0ZM46.5476 65.1335C46.5476 73.2208 41.8043 76.9048 34.8791 76.9048C28.6179 76.9048 24.1039 72.7069 22.2619 68.8095L28.6259 64.9595C29.8512 67.1336 31.7169 68.8095 34.4048 68.8095C36.9741 68.8095 38.4524 67.8055 38.4524 63.9002V38.4524H46.5476L46.5476 65.1335ZM64.1057 76.9048C56.9354 76.9048 52.8641 73.2919 50.5952 68.8095L56.6667 64.7619C58.3189 67.4656 60.1214 70.0507 63.9318 70.0507C67.1335 70.0507 68.8095 68.4538 68.8095 66.2402C68.8095 63.5998 67.0703 62.659 63.5524 61.1175L61.6234 60.2874C56.05 57.9157 52.3424 54.9433 52.3424 48.6505C52.3424 42.8637 56.7615 38.4524 63.6551 38.4524C68.5644 38.4524 72.0903 40.16 74.6359 44.6345L68.6277 48.5003C67.2996 46.1207 65.8766 45.1879 63.6551 45.1879C61.3941 45.1879 59.9632 46.6267 59.9632 48.5003C59.9632 50.8166 61.3941 51.7495 64.7066 53.1883L66.6355 54.0183C73.205 56.8248 76.9048 59.6945 76.9048 66.1454C76.9048 73.0943 71.4421 76.9048 64.1057 76.9048Z" fill="black"/>
</svg>
